<svg width="75" height="17" viewBox="0 0 75 17" fill="none" xmlns="http://www.w3.org/2000/svg">
<path d="M2.13 8.00357H5.72C5.72 7.74357 5.72 7.54357 5.72 7.41357H11.84V5.52357H6.29C6.69177 4.76196 7.30228 4.13063 8.05 3.70357C8.83831 3.24154 9.73627 2.99978 10.65 3.00357C11.3913 2.99646 12.1249 3.15428 12.7977 3.46559C13.4704 3.77691 14.0656 4.23393 14.54 4.80357L16.81 2.69357C16.0716 1.82407 15.1401 1.13918 14.09 0.693569C12.9438 0.216343 11.7113 -0.0185808 10.47 0.00356872C9.25344 -0.00568247 8.04703 0.225405 6.92 0.683569C5.86152 1.11716 4.91215 1.77967 4.14 2.62357C3.37321 3.44968 2.80841 4.44234 2.49 5.52357H0V7.37357H2.16C2.13448 7.58254 2.12446 7.79312 2.13 8.00357Z" fill="white"/>
<path d="M20.81 14.1836L18.54 12.0736C18.0675 12.6469 17.4733 13.1077 16.8004 13.4225C16.1275 13.7373 15.3929 13.8983 14.65 13.8936C13.74 13.9095 12.8422 13.6816 12.05 13.2336C11.3023 12.8065 10.6918 12.1752 10.29 11.4136H15.86V9.56358H9.74C9.74 9.43358 9.74 9.23358 9.74 8.96358H6.13C6.11613 9.16334 6.11613 9.36382 6.13 9.56358L4 9.56357V11.4136L6.49 11.4136C6.81075 12.4938 7.37525 13.486 8.14 14.3136C8.91215 15.1575 9.86152 15.82 10.92 16.2536C12.047 16.7117 13.2534 16.9428 14.47 16.9336C15.7127 16.9494 16.9453 16.7077 18.09 16.2236C19.1457 15.7691 20.0781 15.0698 20.81 14.1836Z" fill="white"/>
<path d="M17.75 0.263565V3.12356H20.83V7.96356H24.4V0.263565H17.75Z" fill="white"/>
<path d="M28.39 8.96358H24.83V16.6636H28.39V8.96358Z" fill="white"/>
<path d="M37.09 1.00358C36.3264 0.511216 35.4651 0.190138 34.5656 0.0624359C33.666 -0.0652659 32.7494 0.00344014 31.8789 0.263827C31.0084 0.524213 30.2047 0.970098 29.523 1.5708C28.8413 2.1715 28.2978 2.91276 27.93 3.74358C27.3325 5.08242 27.0421 6.53796 27.08 8.00358H30.69C30.6043 6.70682 30.8813 5.41181 31.49 4.26358C31.7242 3.89174 32.0488 3.58533 32.4335 3.37296C32.8183 3.1606 33.2505 3.04922 33.69 3.04922C34.1294 3.04922 34.5617 3.1606 34.9464 3.37296C35.3312 3.58533 35.6558 3.89174 35.89 4.26358C36.5098 5.40798 36.7908 6.70528 36.7 8.00358H40.28C40.3194 6.5346 40.0289 5.07548 39.43 3.73358C38.9333 2.61464 38.1198 1.66561 37.09 1.00358Z" fill="white"/>
<path d="M43.43 13.2436C44.0242 11.9107 44.3146 10.4624 44.28 9.00357H40.7C40.793 10.302 40.5119 11.5999 39.89 12.7436C39.6558 13.1154 39.3312 13.4218 38.9465 13.6342C38.5617 13.8465 38.1294 13.9579 37.69 13.9579C37.2506 13.9579 36.8183 13.8465 36.4336 13.6342C36.0488 13.4218 35.7242 13.1154 35.49 12.7436C34.8768 11.597 34.5995 10.3007 34.69 9.00357H31.08C31.0394 10.4759 31.3299 11.9385 31.93 13.2836C32.4129 14.4006 33.2179 15.3484 34.2422 16.0056C35.2664 16.6629 36.4633 16.9999 37.68 16.9736C38.8967 16.9999 40.0936 16.6629 41.1179 16.0056C42.1421 15.3484 42.9471 14.4006 43.43 13.2836V13.2436Z" fill="white"/>
<path d="M52 1.00358C51.2364 0.511216 50.3751 0.190138 49.4756 0.0624359C48.576 -0.0652659 47.6594 0.00344014 46.7889 0.263827C45.9184 0.524213 45.1147 0.970098 44.433 1.5708C43.7513 2.1715 43.2078 2.91276 42.84 3.74358C42.246 5.08321 41.959 6.53872 42 8.00358H45.61C45.5167 6.70628 45.7942 5.4092 46.41 4.26358C46.6442 3.89174 46.9688 3.58533 47.3535 3.37296C47.7383 3.1606 48.1706 3.04922 48.61 3.04922C49.0494 3.04922 49.4817 3.1606 49.8665 3.37296C50.2512 3.58533 50.5758 3.89174 50.81 4.26358C51.4328 5.40715 51.7172 6.70435 51.63 8.00358H55.22C55.2594 6.5346 54.9689 5.07548 54.37 3.73358C53.8652 2.61062 53.0409 1.66115 52 1.00358Z" fill="white"/>
<path d="M58.37 13.2436C58.9642 11.9107 59.2546 10.4624 59.22 9.00357H55.63C55.7255 10.301 55.4479 11.5987 54.83 12.7436C54.5958 13.1154 54.2712 13.4218 53.8865 13.6342C53.5017 13.8465 53.0694 13.9579 52.63 13.9579C52.1906 13.9579 51.7583 13.8465 51.3736 13.6342C50.9888 13.4218 50.6642 13.1154 50.43 12.7436C49.8121 11.5987 49.5345 10.301 49.63 9.00357H46C45.9594 10.4759 46.2499 11.9385 46.85 13.2836C47.3329 14.4006 48.1379 15.3484 49.1622 16.0056C50.1864 16.6629 51.3833 16.9999 52.6 16.9736C53.8167 16.9999 55.0136 16.6629 56.0378 16.0056C57.0621 15.3484 57.8671 14.4006 58.35 13.2836L58.37 13.2436Z" fill="white"/>
<path d="M67 1.00357C65.971 0.382591 64.7919 0.0543976 63.59 0.0543976C62.3881 0.0543976 61.209 0.382591 60.18 1.00357C59.1443 1.65251 58.3179 2.58654 57.8 3.69357C57.2178 5.05338 56.9446 6.52541 57 8.00357H60.6C60.5092 6.70527 60.7902 5.40797 61.41 4.26357C61.6269 3.88386 61.9395 3.56768 62.3168 3.34658C62.6941 3.12549 63.1227 3.00721 63.56 3.00357C64.0016 2.99659 64.4375 3.10444 64.8249 3.31655C65.2123 3.52866 65.538 3.83776 65.77 4.21357C66.3878 5.3765 66.6651 6.69013 66.57 8.00357H70.16C70.1957 6.53491 69.9054 5.0766 69.31 3.73357C68.815 2.62255 68.0138 1.67558 67 1.00357Z" fill="white"/>
<path d="M73.31 13.2436C73.9011 11.9097 74.1913 10.4622 74.16 9.00357H70.57C70.6605 10.3007 70.3832 11.597 69.77 12.7436C69.541 13.1222 69.2159 13.4335 68.8278 13.646C68.4397 13.8585 68.0023 13.9646 67.56 13.9536C67.1205 13.9641 66.686 13.8576 66.3012 13.645C65.9164 13.4324 65.595 13.1213 65.37 12.7436C64.7481 11.5999 64.467 10.302 64.56 9.00357H61C60.9617 10.4747 61.2485 11.9361 61.84 13.2836C62.3342 14.3924 63.1358 15.3364 64.15 16.0036C65.1709 16.6433 66.3554 16.9733 67.56 16.9536C68.7745 16.9768 69.9696 16.6468 71 16.0036C72.0182 15.3235 72.8199 14.3656 73.31 13.2436Z" fill="white"/>
</svg>
