<svg width="62" height="17" viewBox="0 0 62 17" fill="none" xmlns="http://www.w3.org/2000/svg">
<path d="M4.14 2.62148C3.37321 3.44759 2.80841 4.44025 2.49 5.52148H0V7.37148H2.16C2.1464 7.56791 2.1464 7.76505 2.16 7.96148H5.72C5.72 7.70148 5.72 7.50148 5.72 7.37148H11.84V5.52148H6.29C6.69177 4.75987 7.30228 4.12854 8.05 3.70148C8.83831 3.23944 9.73627 2.99768 10.65 3.00148C11.3913 2.99437 12.1249 3.15219 12.7977 3.4635C13.4704 3.77481 14.0656 4.23184 14.54 4.80148L16.81 2.69148C16.0716 1.82197 15.1401 1.13709 14.09 0.691477C12.9474 0.213936 11.7181 -0.0210283 10.48 0.00147657C9.25998 -0.0101566 8.04984 0.220995 6.92 0.681477C5.86152 1.11507 4.91215 1.77758 4.14 2.62148Z" fill="white"/>
<path d="M4.16 9.56148H2V11.4115H4.49C4.81075 12.4917 5.37525 13.4839 6.14 14.3115C6.91215 15.1554 7.86152 15.8179 8.92 16.2515C10.047 16.7096 11.2534 16.9407 12.47 16.9315C13.7127 16.9473 14.9453 16.7056 16.09 16.2215C17.1416 15.7785 18.0736 15.0932 18.81 14.2215L16.54 12.1115C16.0675 12.6848 15.4733 13.1456 14.8004 13.4604C14.1275 13.7752 13.3929 13.9362 12.65 13.9315C11.74 13.9474 10.8422 13.7195 10.05 13.2715C9.30228 12.8444 8.69177 12.2131 8.29 11.4515H13.86V9.56148H7.74C7.74 9.43148 7.74 9.23148 7.74 8.96148H4.13C4.1261 9.16193 4.13612 9.36241 4.16 9.56148Z" fill="white"/>
<path d="M17.31 2.86148L19.91 4.53148C20.2562 4.03697 20.7248 3.64074 21.27 3.38148C21.8437 3.11897 22.4692 2.98908 23.1 3.00148C23.752 2.95756 24.3999 3.13361 24.94 3.50148C25.1472 3.67317 25.3113 3.89108 25.419 4.13771C25.5266 4.38433 25.5749 4.65278 25.56 4.92148C25.5537 5.36837 25.4406 5.80726 25.23 6.20148C24.9059 6.77789 24.4905 7.29797 24 7.74148L23.72 8.00148H27.94C28.1998 7.69189 28.4276 7.35686 28.62 7.00148C28.9719 6.26466 29.153 5.45799 29.15 4.64148C29.1697 3.78548 28.9177 2.94525 28.43 2.24148C27.9281 1.5321 27.2343 0.980545 26.43 0.651477C25.4792 0.260351 24.4579 0.069706 23.43 0.0914766C22.1848 0.0363729 20.9435 0.265497 19.8 0.761477C18.7939 1.22111 17.9328 1.94735 17.31 2.86148Z" fill="white"/>
<path d="M20 14.3515V16.6615H31.66V13.7615H25L28.55 10.4215C29.0476 9.98298 29.5122 9.50836 29.94 9.00148H25.72L20 14.3515Z" fill="white"/>
<path d="M31.93 3.69148C31.3341 5.04817 31.0472 6.52032 31.09 8.00148H34.69C34.5992 6.70318 34.8802 5.40588 35.5 4.26148C35.7202 3.87588 36.0392 3.55591 36.4241 3.33446C36.809 3.11301 37.246 2.99807 37.69 3.00148C38.1326 2.99554 38.5691 3.10491 38.9566 3.31882C39.344 3.53273 39.6692 3.84381 39.9 4.22148C40.516 5.38147 40.7932 6.69138 40.7 8.00148H44.29C44.3237 6.53299 44.0335 5.07511 43.44 3.73148C42.9369 2.61656 42.1249 1.66917 41.1 1.00148C40.0836 0.346268 38.8993 -0.00101571 37.69 0.00147657C36.4837 -0.00194739 35.3024 0.345491 34.29 1.00148C33.2617 1.65336 32.4425 2.58711 31.93 3.69148Z" fill="white"/>
<path d="M41.9 12.7015C41.6702 13.0794 41.345 13.3901 40.9571 13.6025C40.5691 13.8149 40.1321 13.9215 39.69 13.9115C39.2505 13.922 38.816 13.8155 38.4312 13.6029C38.0464 13.3903 37.725 13.0792 37.5 12.7015C36.8856 11.5696 36.6047 10.2866 36.69 9.00148H33.09C33.0517 10.4726 33.3385 11.934 33.93 13.2815C34.435 14.3956 35.251 15.3401 36.28 16.0015C37.309 16.6225 38.4881 16.9506 39.69 16.9506C40.8919 16.9506 42.071 16.6225 43.1 16.0015C44.1263 15.3311 44.9385 14.3801 45.44 13.2615C46.0321 11.9209 46.3222 10.4666 46.29 9.00148H42.7C42.7829 10.2852 42.5059 11.5667 41.9 12.7015Z" fill="white"/>
<path d="M46.87 3.69148C46.2638 5.04581 45.9667 6.51806 46 8.00148H49.61C49.5243 6.70472 49.8013 5.40971 50.41 4.26148C50.6442 3.88964 50.9688 3.58323 51.3535 3.37086C51.7383 3.1585 52.1706 3.04712 52.61 3.04712C53.0494 3.04712 53.4817 3.1585 53.8665 3.37086C54.2512 3.58323 54.5758 3.88964 54.81 4.26148C55.4367 5.40383 55.7247 6.70124 55.64 8.00148H59.22C59.2577 6.5369 58.9708 5.08212 58.38 3.74148C57.8701 2.61605 57.043 1.66382 56 1.00148C54.9962 0.351048 53.8261 0.00384684 52.63 0.00147657C51.4207 -0.00101571 50.2364 0.346268 49.22 1.00148C48.1973 1.65695 47.3822 2.58996 46.87 3.69148Z" fill="white"/>
<path d="M57.64 9.00148C57.733 10.2999 57.4519 11.5979 56.83 12.7415C56.5958 13.1133 56.2712 13.4197 55.8865 13.6321C55.5017 13.8445 55.0694 13.9558 54.63 13.9558C54.1906 13.9558 53.7583 13.8445 53.3736 13.6321C52.9888 13.4197 52.6642 13.1133 52.43 12.7415C51.8168 11.5949 51.5395 10.2986 51.63 9.00148H48C47.9648 10.4733 48.2551 11.9348 48.85 13.2815C49.3601 14.3953 50.1792 15.3394 51.21 16.0015C52.2356 16.6167 53.4091 16.9416 54.605 16.9416C55.8009 16.9416 56.9744 16.6167 58 16.0015C59.0319 15.3347 59.8482 14.3829 60.35 13.2615C60.9511 11.9232 61.2483 10.4683 61.22 9.00148H57.64Z" fill="white"/>
</svg>
