<svg width="111" height="18" viewBox="0 0 111 18" fill="none" xmlns="http://www.w3.org/2000/svg">
<path d="M2.13 8.25926H5.72C5.72 7.99704 5.72 7.79533 5.72 7.66422H11.84V5.75807H6.29C6.69177 4.98995 7.30228 4.35322 8.05 3.92251C8.83831 3.45653 9.73627 3.2127 10.65 3.21653C11.3913 3.20936 12.1249 3.36853 12.7977 3.6825C13.4704 3.99648 14.0656 4.4574 14.54 5.03191L16.81 2.90388C16.0716 2.02694 15.1401 1.33621 14.09 0.886785C12.9438 0.40548 11.7113 0.168548 10.47 0.190887C9.25344 0.181557 8.04703 0.414619 6.92 0.876699C5.86152 1.31399 4.91215 1.98217 4.14 2.83328C3.37321 3.66645 2.80841 4.6676 2.49 5.75807H0V7.62388H2.16C2.13448 7.83464 2.12446 8.04701 2.13 8.25926Z" fill="white"/>
<path d="M19.81 14.4921L17.54 12.3641C17.0675 12.9423 16.4733 13.407 15.8004 13.7245C15.1275 14.042 14.3929 14.2043 13.65 14.1996C12.74 14.2157 11.8422 13.9859 11.05 13.534C10.3023 13.1033 9.69177 12.4665 9.29 11.6984H14.86V9.83261H8.74C8.74 9.7015 8.74 9.49978 8.74 9.22748H5.13C5.11613 9.42894 5.11613 9.63114 5.13 9.83261H3V11.6984H5.49C5.81075 12.7879 6.37525 13.7885 7.14 14.6232C7.91215 15.4743 8.86152 16.1425 9.92 16.5798C11.047 17.0419 12.2534 17.2749 13.47 17.2656C14.7127 17.2816 15.9453 17.0377 17.09 16.5495C18.1457 16.0912 19.0781 15.3859 19.81 14.4921Z" fill="white"/>
<path d="M28.86 2.78285V0.453106H18.08V3.33755H24.64L21.47 6.95823V8.25926H28.4C27.5796 7.46597 26.5277 6.96027 25.4 6.81704L28.86 2.78285Z" fill="white"/>
<path d="M31.86 14.7442C32.3203 14.0108 32.5663 13.1614 32.57 12.2935C32.6216 11.1804 32.2332 10.0923 31.49 9.26781H24.47V10.3772H26.1C28 10.3369 29 10.9823 29 12.2935C29.0091 12.5851 28.943 12.8742 28.808 13.1323C28.673 13.3905 28.4738 13.6088 28.23 13.7659C27.5927 14.1453 26.8591 14.3276 26.12 14.2904C25.3154 14.293 24.5155 14.167 23.75 13.9172C23.0318 13.6969 22.3556 13.356 21.75 12.9087L20.36 15.662C21.1664 16.2029 22.0596 16.5987 23 16.8319C24.0421 17.1228 25.1187 17.2687 26.2 17.2656C27.4122 17.3001 28.6172 17.066 29.73 16.5798C30.6017 16.1895 31.3418 15.5517 31.86 14.7442Z" fill="white"/>
<path d="M30.27 3.07533L32.87 4.7596C33.2138 4.25864 33.6831 3.85846 34.23 3.59977C34.8034 3.33402 35.4291 3.20298 36.06 3.21652C36.7119 3.17379 37.3592 3.35122 37.9 3.7208C38.1072 3.89395 38.2713 4.11373 38.379 4.36246C38.4866 4.6112 38.5349 4.88194 38.52 5.15293C38.5137 5.60364 38.4006 6.04629 38.19 6.44387C37.8547 7.03179 37.4256 7.55995 36.92 8.00712L36.68 8.25926H40.89C41.156 7.94966 41.3874 7.61143 41.58 7.25071C41.9319 6.5076 42.113 5.69403 42.11 4.87054C42.1297 4.00723 41.8777 3.15982 41.39 2.45003C40.8881 1.73459 40.1943 1.17832 39.39 0.846437C38.4386 0.453904 37.4177 0.261706 36.39 0.281651C35.1379 0.254564 33.8962 0.516752 32.76 1.04815C31.7649 1.48666 30.9049 2.1868 30.27 3.07533Z" fill="white"/>
<path d="M34 14.6635V16.9933H45.61V14.0685H39L42.54 10.6999C43.0288 10.2614 43.4804 9.78233 43.89 9.26781H39.68L34 14.6635Z" fill="white"/>
<path d="M45 4.03345C44.3508 5.33204 44.0085 6.76461 44 8.21892H55.82C55.3738 7.63576 54.7984 7.16603 54.14 6.84729C53.3051 6.43933 52.3877 6.23219 51.46 6.24216C50.766 6.19957 50.0707 6.29915 49.4159 6.53488C48.7611 6.77061 48.1604 7.13762 47.65 7.61379C47.622 6.38037 48.0619 5.18269 48.88 4.26541C49.2962 3.87135 49.7872 3.56634 50.3234 3.36874C50.8596 3.17115 51.4299 3.08506 52 3.11567C53.0152 3.08007 54.0179 3.35044 54.88 3.89225L56.2 1.25994C55.6023 0.888491 54.9463 0.622462 54.26 0.473275C53.488 0.280924 52.6952 0.186066 51.9 0.190882C50.4672 0.168426 49.0524 0.515589 47.79 1.19943C46.5981 1.83902 45.6256 2.82685 45 4.03345Z" fill="white"/>
<path d="M59 14.8249C59.5197 14.011 59.7877 13.0596 59.77 12.0917C59.7883 11.1937 59.5449 10.31 59.07 9.55021L58.82 9.26781H47.06C47.06 9.38884 47.06 9.48969 47.06 9.60063C46.9116 11.6706 47.5599 13.7187 48.87 15.3191C49.5204 16.0019 50.309 16.5355 51.1821 16.8835C52.0553 17.2316 52.9925 17.386 53.93 17.3362C54.9647 17.3553 55.9903 17.1381 56.93 16.7008C57.7821 16.2857 58.4999 15.6352 59 14.8249ZM55.6 13.9576C55.0763 14.3877 54.4149 14.6101 53.74 14.5829C53.0173 14.6233 52.3052 14.3935 51.74 13.9374C51.5099 13.7257 51.326 13.4679 51.2002 13.1805C51.0745 12.8931 51.0095 12.5824 51.0095 12.2682C51.0095 11.9541 51.0745 11.6434 51.2002 11.356C51.326 11.0686 51.5099 10.8108 51.74 10.5991C52.2901 10.1802 52.9607 9.9536 53.65 9.9536C54.3393 9.9536 55.0099 10.1802 55.56 10.5991C55.8049 10.8051 55.9998 11.0649 56.1298 11.3586C56.2598 11.6522 56.3214 11.972 56.31 12.2935C56.3205 12.6074 56.2613 12.9198 56.1368 13.2077C56.0122 13.4956 55.8254 13.7518 55.59 13.9576H55.6Z" fill="white"/>
<path d="M65.13 3.91242C64.5307 5.27992 64.2404 6.76468 64.28 8.25926H67.89C67.8043 6.95142 68.0813 5.64534 68.69 4.4873C68.9242 4.11228 69.2488 3.80325 69.6336 3.58907C70.0183 3.37489 70.4506 3.26256 70.89 3.26256C71.3295 3.26256 71.7617 3.37489 72.1465 3.58907C72.5312 3.80325 72.8558 4.11228 73.09 4.4873C73.7098 5.64148 73.9908 6.94986 73.9 8.25926H77.48C77.5169 6.77898 77.2301 5.30867 76.64 3.95276C76.1366 2.82545 75.3204 1.86919 74.29 1.19943C73.261 0.573149 72.0819 0.24215 70.88 0.24215C69.6781 0.24215 68.499 0.573149 67.47 1.19943C66.4484 1.85896 65.6362 2.80065 65.13 3.91242Z" fill="white"/>
<path d="M79.64 13.5441C80.2258 12.1974 80.5125 10.7379 80.48 9.26781H76.9C76.993 10.5774 76.7119 11.8864 76.09 13.0398C75.8558 13.4148 75.5312 13.7238 75.1465 13.938C74.7617 14.1522 74.3294 14.2645 73.89 14.2645C73.4506 14.2645 73.0183 14.1522 72.6336 13.938C72.2488 13.7238 71.9242 13.4148 71.69 13.0398C71.0768 11.8834 70.7995 10.576 70.89 9.26781H67.28C67.2448 10.7522 67.5351 12.2262 68.13 13.5844C68.6347 14.7051 69.4466 15.657 70.47 16.3276C71.499 16.9539 72.6781 17.2849 73.88 17.2849C75.0819 17.2849 76.261 16.9539 77.29 16.3276C78.3249 15.6498 79.1415 14.6825 79.64 13.5441Z" fill="white"/>
<path d="M80.07 3.91243C79.4652 5.27815 79.1746 6.7642 79.22 8.25926H82.83C82.7443 6.95142 83.0213 5.64535 83.63 4.4873C83.8642 4.11228 84.1888 3.80325 84.5736 3.58907C84.9583 3.3749 85.3906 3.26256 85.83 3.26256C86.2695 3.26256 86.7017 3.3749 87.0865 3.58907C87.4712 3.80325 87.7958 4.11228 88.03 4.4873C88.6498 5.64148 88.9308 6.94987 88.84 8.25926H92.42C92.4594 6.77773 92.1689 5.30614 91.57 3.95277C91.0764 2.83019 90.2704 1.87622 89.2497 1.20663C88.229 0.537044 87.0376 0.180624 85.82 0.180624C84.6024 0.180624 83.411 0.537044 82.3903 1.20663C81.3696 1.87622 80.5636 2.83019 80.07 3.95277V3.91243Z" fill="white"/>
<path d="M94.57 13.5441C95.1642 12.1998 95.4546 10.7392 95.42 9.26781H91.84C91.9162 10.5668 91.6249 11.8609 91 12.9994C90.7658 13.3745 90.4412 13.6835 90.0565 13.8977C89.6717 14.1118 89.2395 14.2242 88.8 14.2242C88.3606 14.2242 87.9283 14.1118 87.5436 13.8977C87.1588 13.6835 86.8342 13.3745 86.6 12.9994C86.0045 11.8519 85.7379 10.5597 85.83 9.26781H82.22C82.1795 10.7527 82.4699 12.2278 83.07 13.5844C83.5636 14.707 84.3696 15.6609 85.3903 16.3305C86.411 17.0001 87.6024 17.3565 88.82 17.3565C90.0376 17.3565 91.229 17.0001 92.2497 16.3305C93.2704 15.6609 94.0764 14.707 94.57 13.5844V13.5441Z" fill="white"/>
<path d="M104.17 1.19944C103.409 0.699545 102.55 0.3717 101.652 0.238433C100.753 0.105165 99.8372 0.169633 98.9659 0.427407C98.0946 0.685182 97.289 1.13015 96.6044 1.73174C95.9198 2.33332 95.3725 3.07726 95 3.91243C94.3986 5.27896 94.1114 6.76498 94.16 8.25927H97.77C97.6767 6.95088 97.9542 5.64271 98.57 4.4873C98.7902 4.09841 99.1092 3.7757 99.4941 3.55236C99.879 3.32902 100.316 3.2131 100.76 3.21653C101.208 3.20315 101.651 3.31002 102.045 3.52621C102.439 3.7424 102.768 4.06015 103 4.44696C103.609 5.60501 103.886 6.91108 103.8 8.21892H107.39C107.429 6.73739 107.139 5.2658 106.54 3.91243C106.029 2.79473 105.205 1.85185 104.17 1.19944Z" fill="white"/>
<path d="M106 12.9994C105.766 13.3745 105.441 13.6835 105.056 13.8977C104.672 14.1118 104.239 14.2242 103.8 14.2242C103.361 14.2242 102.928 14.1118 102.544 13.8977C102.159 13.6835 101.834 13.3745 101.6 12.9994C100.982 11.8448 100.704 10.536 100.8 9.22748H97.16C97.1163 10.7116 97.4034 12.1867 98 13.5441C98.4936 14.6666 99.2996 15.6206 100.32 16.2902C101.341 16.9598 102.532 17.3162 103.75 17.3162C104.968 17.3162 106.159 16.9598 107.18 16.2902C108.2 15.6206 109.006 14.6666 109.5 13.5441C110.098 12.2006 110.391 10.7399 110.36 9.26782H106.77C106.867 10.56 106.6 11.8536 106 12.9994Z" fill="white"/>
</svg>
