<svg width="76" height="18" viewBox="0 0 76 18" fill="none" xmlns="http://www.w3.org/2000/svg">
<path d="M13.47 17.9245C14.2313 17.924 14.99 17.8326 15.73 17.6522H11.25C11.9767 17.8314 12.7219 17.9228 13.47 17.9245Z" fill="white"/>
<path d="M11.86 8.28278V6.41697H6.29C6.69177 5.64885 7.30228 5.01213 8.05 4.58141C8.83831 4.11543 9.73627 3.87161 10.65 3.87543C11.3913 3.86826 12.1249 4.02743 12.7977 4.3414C13.4704 4.65538 14.0656 5.11631 14.54 5.69082L16.81 3.56278C16.0716 2.68585 15.1401 1.99511 14.09 1.54569C12.9438 1.06438 11.7113 0.827452 10.47 0.849791C9.25344 0.84046 8.04703 1.07352 6.92 1.5356C5.86152 1.9729 4.91215 2.64107 4.14 3.49218C3.37321 4.32536 2.80841 5.3265 2.49 6.41697H0V8.28278H2.16C2.14823 8.4372 2.14823 8.5923 2.16 8.74671H5.72C5.72 8.55509 5.72 8.39372 5.72 8.28278H11.86Z" fill="white"/>
<path d="M19.81 15.151L17.54 13.023C17.0675 13.6012 16.4733 14.0659 15.8004 14.3834C15.1275 14.7009 14.3929 14.8632 13.65 14.8585C12.74 14.8746 11.8422 14.6448 11.05 14.1929C10.3023 13.7622 9.69177 13.1254 9.29 12.3573H14.86V10.4915H8.74C8.74 10.3604 8.74 10.1587 8.74 9.88638V9.75527H5.14C5.14 9.80569 5.14 9.83595 5.14 9.88638C5.12613 10.0878 5.12613 10.29 5.14 10.4915H3V12.3573H5.49C5.81075 13.4468 6.37525 14.4474 7.14 15.2821C7.91215 16.1332 8.86152 16.8014 9.92 17.2387C10.3514 17.4128 10.7963 17.5511 11.25 17.6522H15.73C16.196 17.547 16.6512 17.3984 17.09 17.2084C18.1457 16.7501 19.0781 16.0448 19.81 15.151Z" fill="white"/>
<path d="M30.29 1.11201H17.95V6.57833H21.12V4.04688H26.22L24.16 8.74671H28L30.29 3.44175V1.11201Z" fill="white"/>
<path d="M27.16 9.75527L23.7 17.6522H27.57L31 9.75527H27.16Z" fill="white"/>
<path d="M39.74 17.9245C40.5148 17.9282 41.2871 17.8367 42.04 17.6522H37.35C38.1356 17.8235 38.9363 17.9147 39.74 17.9245Z" fill="white"/>
<path d="M36.78 6.9515H35.53L35.77 3.99645H42.2V1.11201H32.8L32.11 8.74671H42.11C41.9636 8.57548 41.8067 8.41379 41.64 8.26261C40.2226 7.26419 38.5023 6.8001 36.78 6.9515Z" fill="white"/>
<path d="M45.44 15.3628C45.9091 14.5818 46.1516 13.6838 46.14 12.7708C46.1737 11.6606 45.7876 10.579 45.06 9.74518H35.06L35 10.8647H39C39.9553 10.788 40.9139 10.9654 41.78 11.379C42.0361 11.5326 42.2459 11.7536 42.3869 12.0184C42.5278 12.2831 42.5946 12.5816 42.58 12.8818C42.5917 13.1767 42.5267 13.4695 42.3917 13.7313C42.2566 13.9931 42.0561 14.2148 41.81 14.3744C41.1762 14.763 40.4407 14.9493 39.7 14.9089C38.902 14.9114 38.1087 14.7855 37.35 14.5358C36.6318 14.3155 35.9556 13.9745 35.35 13.5272L33.95 16.2806C34.7596 16.849 35.664 17.2658 36.62 17.511C36.89 17.5816 37.16 17.6219 37.43 17.6724H42C42.4297 17.5739 42.8485 17.432 43.25 17.2488C44.1476 16.8503 44.9092 16.1945 45.44 15.3628Z" fill="white"/>
<path d="M54.19 17.9245C54.8299 17.9289 55.4669 17.8372 56.08 17.6522H52.31C52.9198 17.8363 53.5534 17.9281 54.19 17.9245Z" fill="white"/>
<path d="M54.6 1.85833C53.571 1.23205 52.3919 0.901054 51.19 0.901054C49.9881 0.901054 48.809 1.23205 47.78 1.85833C46.751 2.5314 45.9381 3.49144 45.44 4.62175C44.8602 5.93471 44.5734 7.3601 44.6 8.79714H48.21C48.1235 7.51624 48.3973 6.23672 49 5.10586C49.2342 4.73084 49.5588 4.42181 49.9436 4.20763C50.3283 3.99345 50.7606 3.88112 51.2 3.88112C51.6395 3.88112 52.0717 3.99345 52.4565 4.20763C52.8412 4.42181 53.1658 4.73084 53.4 5.10586C53.9975 6.22072 54.2745 7.48165 54.2 8.74671H57.79C57.8275 7.31381 57.558 5.88961 57 4.57133C56.4767 3.45215 55.6431 2.50984 54.6 1.85833Z" fill="white"/>
<path d="M60 14.203C60.5686 12.8525 60.8382 11.3931 60.79 9.92672V9.75527H57.2C57.2 9.80569 57.2 9.84603 57.2 9.88638C57.293 11.1959 57.0119 12.5049 56.39 13.6583C56.1558 14.0334 55.8312 14.3424 55.4464 14.5566C55.0617 14.7707 54.6294 14.8831 54.19 14.8831C53.7505 14.8831 53.3183 14.7707 52.9335 14.5566C52.5488 14.3424 52.2242 14.0334 51.99 13.6583C51.3876 12.5128 51.114 11.2205 51.2 9.92672C51.2 9.92672 51.2 9.84603 51.2 9.79561H47.6C47.6 9.84603 47.6 9.88638 47.6 9.92672C47.5648 11.4111 47.8551 12.8851 48.45 14.2433C48.952 15.3627 49.7603 16.3144 50.78 16.9865C51.2546 17.2883 51.7699 17.5193 52.31 17.6724H56.08C56.6176 17.5211 57.1299 17.29 57.6 16.9865C58.6534 16.3162 59.488 15.3481 60 14.203Z" fill="white"/>
<path d="M69.13 17.9245C69.7632 17.9269 70.3933 17.8352 71 17.6522H67.24C67.8532 17.8364 68.4901 17.9282 69.13 17.9245Z" fill="white"/>
<path d="M69.54 1.85835C68.7764 1.36178 67.9151 1.03795 67.0156 0.909161C66.116 0.780368 65.1994 0.849661 64.3289 1.11227C63.4584 1.37488 62.6547 1.82458 61.973 2.43042C61.2913 3.03626 60.7478 3.78385 60.38 4.62176C59.8002 5.93472 59.5134 7.36011 59.54 8.79715H63.14C63.0702 7.53247 63.347 6.27283 63.94 5.1563C64.1742 4.78128 64.4988 4.47225 64.8836 4.25807C65.2683 4.04389 65.7006 3.93156 66.14 3.93156C66.5795 3.93156 67.0117 4.04389 67.3965 4.25807C67.7812 4.47225 68.1058 4.78128 68.34 5.1563C68.933 6.27283 69.2098 7.53247 69.14 8.79715H72.73C72.7486 7.35981 72.4586 5.93543 71.88 4.62176C71.3849 3.48956 70.5713 2.52874 69.54 1.85835Z" fill="white"/>
<path d="M74.88 14.203C75.4762 12.8594 75.7666 11.3982 75.73 9.92672V9.75527H72.14C72.14 9.80569 72.14 9.84603 72.14 9.88638C72.233 11.1959 71.9519 12.5049 71.33 13.6583C71.0958 14.0334 70.7712 14.3424 70.3865 14.5566C70.0017 14.7707 69.5694 14.8831 69.13 14.8831C68.6906 14.8831 68.2583 14.7707 67.8736 14.5566C67.4888 14.3424 67.1642 14.0334 66.93 13.6583C66.3276 12.5128 66.054 11.2205 66.14 9.92672V9.75527H62.54C62.54 9.80569 62.54 9.84603 62.54 9.88638C62.4994 11.3713 62.7899 12.8464 63.39 14.203C63.8791 15.3412 64.6894 16.3093 65.72 16.9865C66.192 17.2865 66.7037 17.5174 67.24 17.6724H71C71.5446 17.523 72.0637 17.2918 72.54 16.9865C73.5743 16.3108 74.3882 15.3426 74.88 14.203Z" fill="white"/>
</svg>
