<svg width="44" height="26" viewBox="0 0 44 26" fill="none" xmlns="http://www.w3.org/2000/svg">
<path d="M7.66422 0.581963C7.82208 0.495726 7.9954 0.441471 8.17425 0.422302C8.35311 0.403132 8.53399 0.419426 8.70653 0.47025C8.87908 0.521075 9.03991 0.605432 9.17982 0.718491C9.31973 0.831551 9.43596 0.971094 9.52186 1.12913L13.032 7.56385C15.8897 6.44728 18.932 5.87836 22.0001 5.88677C25.0682 5.87836 28.1105 6.44728 30.9682 7.56385L34.4783 1.12913C34.5615 0.966674 34.6764 0.822515 34.8162 0.705147C34.956 0.587778 35.1179 0.499576 35.2923 0.445735C35.4667 0.391893 35.6501 0.373503 35.8317 0.391647C36.0134 0.409791 36.1895 0.464101 36.3498 0.551379C36.5101 0.638658 36.6514 0.757138 36.7652 0.899841C36.879 1.04254 36.9631 1.20658 37.0126 1.38229C37.062 1.558 37.0758 1.74183 37.0531 1.92294C37.0304 2.10406 36.9716 2.2788 36.8804 2.43687L33.4551 8.71564C39.7147 12.0862 43.8869 18.1352 43.8869 25.0377H0.113281C0.113281 18.1352 4.28545 12.0862 10.5451 8.71564L7.11705 2.4396C6.94376 2.12104 6.90404 1.74671 7.00665 1.39888C7.10925 1.05105 7.34577 0.758199 7.66422 0.584698V0.581963ZM13.7925 19.566C14.5181 19.566 15.214 19.2778 15.7271 18.7647C16.2401 18.2516 16.5284 17.5558 16.5284 16.8302C16.5284 16.1046 16.2401 15.4087 15.7271 14.8956C15.214 14.3826 14.5181 14.0943 13.7925 14.0943C13.0669 14.0943 12.3711 14.3826 11.858 14.8956C11.3449 15.4087 11.0567 16.1046 11.0567 16.8302C11.0567 17.5558 11.3449 18.2516 11.858 18.7647C12.3711 19.2778 13.0669 19.566 13.7925 19.566ZM30.2076 19.566C30.9332 19.566 31.6291 19.2778 32.1422 18.7647C32.6552 18.2516 32.9435 17.5558 32.9435 16.8302C32.9435 16.1046 32.6552 15.4087 32.1422 14.8956C31.6291 14.3826 30.9332 14.0943 30.2076 14.0943C29.482 14.0943 28.7862 14.3826 28.2731 14.8956C27.76 15.4087 27.4718 16.1046 27.4718 16.8302C27.4718 17.5558 27.76 18.2516 28.2731 18.7647C28.7862 19.2778 29.482 19.566 30.2076 19.566Z" fill="#F2F2F4"/>
</svg>
