<svg width="53" height="40" viewBox="0 0 53 40" fill="none" xmlns="http://www.w3.org/2000/svg">
<path d="M43.3215 29.1492C42.4015 31.1862 41.9615 32.0969 40.78 33.8969C39.1292 36.4108 36.7985 39.5477 33.9169 39.5692C31.3538 39.5908 30.6923 37.8969 27.2138 37.9246C23.7354 37.9415 23.0108 39.6 20.4446 39.5738C17.5631 39.5477 15.3569 36.7215 13.7046 34.2123C9.08461 27.1738 8.59692 18.9246 11.4523 14.5354C13.4723 11.4231 16.6692 9.59538 19.6708 9.59538C22.7277 9.59538 24.6492 11.2754 27.1769 11.2754C29.6292 11.2754 31.1231 9.59077 34.6585 9.59077C37.3323 9.59077 40.16 11.0477 42.18 13.5615C35.5708 17.1831 36.6446 26.6231 43.3215 29.1492ZM31.9754 6.78154C33.2615 5.13077 34.2369 2.80154 33.8831 0.426155C31.7846 0.569232 29.3308 1.90923 27.8969 3.64462C26.5985 5.22462 25.5215 7.57231 25.9415 9.84308C28.2308 9.91692 30.6 8.55231 31.9754 6.78154Z" fill="#F2F2F4"/>
</svg>
