<svg width="31" height="58" viewBox="0 0 31 58" fill="none" xmlns="http://www.w3.org/2000/svg">
<path d="M26.4847 0.684462L0.706156 27.1297C0.253394 27.5942 0 28.2172 0 28.8658C0 29.5145 0.253394 30.1375 0.706156 30.602L26.4847 57.0571C26.6957 57.2737 26.9478 57.4459 27.2263 57.5634C27.5049 57.681 27.8041 57.7416 28.1065 57.7416C28.4088 57.7416 28.7081 57.681 28.9866 57.5634C29.2651 57.4459 29.5173 57.2737 29.7282 57.0571C30.1621 56.6129 30.405 56.0165 30.405 55.3956C30.405 54.7746 30.1621 54.1783 29.7282 53.734L5.48679 28.8658L29.7282 4.00255C30.1606 3.55855 30.4026 2.96327 30.4026 2.3435C30.4026 1.72374 30.1606 1.12846 29.7282 0.684462C29.5173 0.467849 29.2651 0.295682 28.9866 0.178124C28.7081 0.0605663 28.4088 0 28.1065 0C27.8041 0 27.5049 0.0605663 27.2263 0.178124C26.9478 0.295682 26.6957 0.467849 26.4847 0.684462Z" fill="#696767"/>
</svg>
