<svg width="31" height="58" viewBox="0 0 31 58" fill="none" xmlns="http://www.w3.org/2000/svg">
<path d="M1.08184 0.679486C0.647945 1.12371 0.405029 1.72005 0.405029 2.34102C0.405029 2.96199 0.647945 3.55832 1.08184 4.00255L25.3233 28.8708L1.08184 53.734C0.647945 54.1783 0.405029 54.7746 0.405029 55.3956C0.405029 56.0165 0.647945 56.6129 1.08184 57.0571C1.29275 57.2737 1.54491 57.4459 1.82345 57.5634C2.10199 57.681 2.40125 57.7416 2.70358 57.7416C3.0059 57.7416 3.30517 57.681 3.58371 57.5634C3.86224 57.4459 4.11441 57.2737 4.32531 57.0571L30.1039 30.6069C30.5567 30.1424 30.8101 29.5194 30.8101 28.8708C30.8101 28.2221 30.5567 27.5991 30.1039 27.1346L4.32531 0.684462C4.11441 0.467849 3.86224 0.295682 3.58371 0.178124C3.30517 0.0605663 3.0059 0 2.70358 0C2.40125 0 2.10199 0.0605663 1.82345 0.178124C1.54491 0.295682 1.29275 0.467849 1.08184 0.684462V0.679486Z" fill="#696767"/>
</svg>
