<svg width="71" height="70" viewBox="0 0 71 70" fill="none" xmlns="http://www.w3.org/2000/svg">
<path fill-rule="evenodd" clip-rule="evenodd" d="M35.7568 67.9681C17.5491 67.9681 2.78878 53.2078 2.78878 35C2.78878 16.7922 17.5491 2.03194 35.7568 2.03194C53.9646 2.03194 68.7249 16.7922 68.7249 35C68.7249 53.2078 53.9646 67.9681 35.7568 67.9681ZM35.7568 70C16.4269 70 0.756836 54.33 0.756836 35C0.756836 15.67 16.4269 0 35.7568 0C55.0868 0 70.7568 15.67 70.7568 35C70.7568 54.33 55.0868 70 35.7568 70ZM51.74 32.3698C52.0503 32.5523 52.2409 32.8855 52.2409 33.2455V35.349C52.2409 35.6947 52.0651 36.0167 51.7743 36.2036L32.7928 48.406C32.6289 48.5114 32.4382 48.5674 32.2434 48.5674H30.4971C29.936 48.5674 29.4811 48.1125 29.4811 47.5514V29.7403C29.4811 29.1792 29.936 28.7243 30.4971 28.7243H32.4231C32.5607 28.7243 32.6968 28.7523 32.8233 28.8065L41.4168 32.4894C41.7903 32.6495 42.0325 33.0168 42.0325 33.4232V35.0826C42.0325 35.4981 41.7796 35.8717 41.3939 36.0259L35.3795 38.4317L36.1342 40.3183L42.1485 37.9126C43.3057 37.4497 44.0645 36.3289 44.0645 35.0826V33.4232C44.0645 32.2039 43.3379 31.102 42.2172 30.6217L33.6237 26.9388C33.2443 26.7762 32.8359 26.6924 32.4231 26.6924H30.4971C28.8138 26.6924 27.4492 28.057 27.4492 29.7403V47.5514C27.4492 49.2347 28.8138 50.5993 30.4971 50.5993H32.2434C32.8278 50.5993 33.3999 50.4313 33.8916 50.1152L52.8731 37.9128C53.7455 37.352 54.2728 36.3861 54.2728 35.349V33.2455C54.2728 32.1654 53.7012 31.166 52.7702 30.6184L29.4572 16.9048C28.9888 16.6293 28.4553 16.484 27.9119 16.484H23.2054C21.5221 16.484 20.1575 17.8486 20.1575 19.5319V55.4167H22.1895V19.5319C22.1895 18.9708 22.6443 18.516 23.2054 18.516H27.9119C28.093 18.516 28.2708 18.5644 28.427 18.6562L51.74 32.3698Z" fill="#ECEDEE"/>
</svg>
