<svg width="71" height="70" viewBox="0 0 71 70" fill="none" xmlns="http://www.w3.org/2000/svg">
<path fill-rule="evenodd" clip-rule="evenodd" d="M35.1592 67.9681C53.3669 67.9681 68.1272 53.2078 68.1272 35C68.1272 16.7922 53.3669 2.03194 35.1592 2.03194C16.9514 2.03194 2.19112 16.7922 2.19112 35C2.19112 53.2078 16.9514 67.9681 35.1592 67.9681ZM35.1592 70C54.4891 70 70.1592 54.33 70.1592 35C70.1592 15.67 54.4891 0 35.1592 0C15.8292 0 0.15918 15.67 0.15918 35C0.15918 54.33 15.8292 70 35.1592 70ZM46.0345 24.0005C43.8501 21.8408 41.078 20.3859 38.0764 19.8095V20.7113C40.8437 21.2761 43.3947 22.6343 45.4127 24.6293C47.4703 26.6636 48.8721 29.2595 49.4484 32.0833H50.3498C49.762 29.0217 48.2609 26.2018 46.0345 24.0005ZM47.4631 22.5556C44.899 20.0205 41.6193 18.3438 38.0764 17.7449V15.1569V13.125H36.0445H34.275H32.2431V15.1569V17.7447C28.7422 18.3362 25.4961 19.9806 22.9436 22.4689C20.2843 25.0612 18.5215 28.4293 17.9039 32.0833H15.3161H13.2842V34.1153V35.8847V37.9167H15.3161H17.9039C18.5165 41.5412 20.2562 44.886 22.8824 47.4712C25.4432 49.9921 28.7129 51.6588 32.2431 52.2553V55.1347V57.1666H34.275H36.0445H38.0764V55.1347V52.2551C41.5726 51.6641 44.8149 50.0231 47.366 47.5397C50.03 44.9464 51.7961 41.5749 52.4144 37.9167H55.0017H57.0336V35.8847V34.1153V32.0833H55.0017H52.4144C51.804 28.472 50.0746 25.1376 47.4631 22.5556ZM38.0764 50.1905C41.0371 49.6219 43.7764 48.1983 45.9487 46.0837C48.2209 43.8717 49.7541 41.0193 50.3498 37.9167H49.4484C48.8699 40.7512 47.4597 43.3558 45.3901 45.393C43.3754 47.3762 40.8329 48.7261 38.0764 49.2887V50.1905ZM38.0764 47.2078C40.292 46.6785 42.3301 45.5538 43.9647 43.9449C45.6465 42.2893 46.8224 40.1985 47.3676 37.9167H45.3669V35.8847V34.1153V32.0833H47.3676C46.8246 29.8107 45.6558 27.7271 43.9841 26.0743C42.3466 24.4553 40.3011 23.3237 38.0764 22.7922V24.7917H36.0445H34.275H32.2431V22.7922C30.0778 23.3095 28.0803 24.3958 26.463 25.9499C24.7249 27.6201 23.5092 29.7509 22.9519 32.0833H24.9508V34.1153V35.8847V37.9167H22.9519C23.4746 40.1043 24.5779 42.1199 26.1563 43.745C27.8201 45.458 29.9332 46.656 32.2431 47.2078V45.4999H34.275H36.0445H38.0764V47.2078ZM32.2431 49.2887C29.3754 48.7034 26.7447 47.2672 24.6987 45.1607C22.7517 43.1562 21.427 40.6402 20.871 37.9167H19.9686C20.5586 40.9898 22.0687 43.8189 24.3079 46.0232C26.4893 48.1705 29.2526 49.6167 32.2431 50.1907V49.2887ZM24.3619 23.9239C26.5356 21.8049 29.2783 20.3784 32.2431 19.8093V20.7113C29.5459 21.2618 27.0512 22.5667 25.0551 24.4848C22.9189 26.5376 21.4618 29.1891 20.8711 32.0833H19.9686C20.5635 28.9844 22.0938 26.1349 24.3619 23.9239ZM22.9189 34.1153H15.3161V35.8847H22.9189V34.1153ZM47.3989 34.1153H55.0017V35.8847H47.3989V34.1153ZM36.0445 22.7597V15.1569H34.275V22.7597H36.0445ZM36.0445 47.5319V55.1347H34.275V47.5319H36.0445Z" fill="#ECEDEE"/>
</svg>
