<svg width="71" height="70" viewBox="0 0 71 70" fill="none" xmlns="http://www.w3.org/2000/svg">
<path fill-rule="evenodd" clip-rule="evenodd" d="M68.7854 35C68.7854 53.2078 54.0251 67.9681 35.8174 67.9681C17.6096 67.9681 2.84933 53.2078 2.84933 35C2.84933 16.7922 17.6096 2.03194 35.8174 2.03194C54.0251 2.03194 68.7854 16.7922 68.7854 35ZM70.8174 35C70.8174 54.33 55.1474 70 35.8174 70C16.4874 70 0.817383 54.33 0.817383 35C0.817383 15.67 16.4874 0 35.8174 0C55.1474 0 70.8174 15.67 70.8174 35ZM35.8042 40.2597H35.8312C35.9954 36.8688 37.6073 33.8578 40.0621 31.8315L39.8039 31.3842C38.5599 31.8366 37.2171 32.0833 35.8167 32.0833C34.4172 32.0833 33.0752 31.8369 31.8317 31.385L31.5738 31.8319C34.0283 33.8581 35.64 36.869 35.8042 40.2597ZM41.8316 51.0417C38.6482 49.2752 36.3779 46.0629 35.9076 42.2917H35.7278C35.2575 46.0629 32.9873 49.2752 29.8039 51.0417H41.8316ZM47.4833 52.5L47.484 52.5C53.9274 52.5 59.1507 47.2766 59.1507 40.8333C59.1507 36.5899 56.8852 32.8755 53.4977 30.8339L47.4837 20.4164L47.4834 20.417C47.4834 20.4169 47.4834 20.4168 47.4834 20.4167C47.4834 13.9733 42.26 8.75 35.8167 8.75C29.3734 8.75 24.15 13.9733 24.15 20.4167V20.4202L18.1368 30.8345C14.7498 32.8763 12.4847 36.5903 12.4847 40.8333C12.4847 47.2762 17.7073 52.4993 24.15 52.5H47.4833ZM47.2185 22.9C46.5131 26.1541 44.45 28.9021 41.652 30.5214L41.7411 30.6757C43.4365 29.7151 45.3962 29.1667 47.484 29.1667C48.7324 29.1667 49.935 29.3627 51.0626 29.7258L47.2185 22.9ZM20.4354 29.771L24.4115 22.8841C25.1138 26.1459 27.1799 28.9008 29.9834 30.5226L29.8948 30.676C28.1993 29.7152 26.2394 29.1667 24.1514 29.1667C22.8522 29.1667 21.6025 29.379 20.4354 29.771ZM24.1514 50.4681C28.9767 50.4681 32.9736 46.9208 33.6765 42.2917H25.5348H23.1885L24.3617 40.2597L28.8786 32.4361C27.4821 31.6482 25.8692 31.1986 24.1514 31.1986C18.8303 31.1986 14.5167 35.5122 14.5167 40.8333C14.5167 46.1544 18.8303 50.4681 24.1514 50.4681ZM26.7079 40.2597L30.5405 33.6216C32.3977 35.2682 33.6144 37.6213 33.7693 40.2597H26.7079ZM35.8167 30.0514C34.7879 30.0514 33.7968 29.8901 32.8672 29.5915L35.8181 24.4806L38.7685 29.5908C37.8382 29.8899 36.8463 30.0514 35.8167 30.0514ZM36.9912 22.4486L40.6359 28.7614C43.5147 27.0952 45.4514 23.9821 45.4514 20.4167C45.4514 15.0956 41.1378 10.7819 35.8167 10.7819C30.4956 10.7819 26.182 15.0956 26.182 20.4167C26.182 23.983 28.1196 27.0967 30.9996 28.7626L34.6449 22.4486L35.8181 20.4167L36.9912 22.4486ZM47.484 31.1986C45.7664 31.1986 44.1538 31.6481 42.7573 32.4358L47.2744 40.2597L48.4476 42.2917H46.1013H37.959C38.6618 46.9208 42.6587 50.4681 47.484 50.4681C52.8052 50.4681 57.1188 46.1544 57.1188 40.8333C57.1188 35.5122 52.8052 31.1986 47.484 31.1986ZM44.9282 40.2597L41.0954 33.6212C39.2379 35.2678 38.021 37.6211 37.8661 40.2597H44.9282Z" fill="#ECEDEE"/>
</svg>
