<svg width="71" height="70" viewBox="0 0 71 70" fill="none" xmlns="http://www.w3.org/2000/svg">
<path fill-rule="evenodd" clip-rule="evenodd" d="M35.1592 67.9681C53.3669 67.9681 68.1272 53.2078 68.1272 35C68.1272 16.7922 53.3669 2.03194 35.1592 2.03194C16.9514 2.03194 2.19112 16.7922 2.19112 35C2.19112 53.2078 16.9514 67.9681 35.1592 67.9681ZM35.1592 70C54.4891 70 70.1592 54.33 70.1592 35C70.1592 15.67 54.4891 0 35.1592 0C15.8292 0 0.15918 15.67 0.15918 35C0.15918 54.33 15.8292 70 35.1592 70ZM32.6854 58.7757H33.7014H43.9098V60.8076H34.7174V64.1667H32.6854V59.7917V58.7757ZM51.2008 45.6507H50.1849V46.6667V54.4007H26.4092H25.3932V55.4167V61.25H27.4252V56.4326H51.2008H52.2168V55.4167V47.6826H57.0342V45.6507H51.2008ZM46.3829 36.016V49.5833V50.5993H45.3669H20.1329V56.875H18.101V49.5833V48.5674H19.1169H44.351V35H45.3669V33.984H52.6586H53.6746V35V39.8174H57.476V24.7917V23.7757H58.4919H61.4086V25.8076H59.5079V40.8333V41.8493H58.4919H52.6586H51.6426V40.8333V36.016H46.3829ZM40.5507 23.3333V43.75V44.766H39.5347H20.5764H19.5604V43.75V40.391H12.8424V46.6667H10.8104V39.375V38.359H11.8264H20.5764H21.5924V39.375V42.734H38.5188V23.3333H40.5507ZM34.7168 13.125V8.75H32.6849V12.109H24.9508H23.9349V13.125V17.9424H16.2008H15.1849V18.9583V32.5257H8.90918V34.5576H16.2008H17.2168V33.5417V19.9743H24.9508H25.9668V18.9583V14.141H33.7008H34.7168V13.125ZM40.5502 11.6667V18.9583V19.9743H39.5342H31.8002V24.7917V25.8076H30.7842H23.0502V32.5257H27.8675H28.8835V33.5417V36.9007H34.1432V30.1826H27.8675V28.1507H35.1592H36.1752V29.1667V37.9167V38.9326H35.1592H27.8675H26.8515V37.9167V34.5576H22.0342H21.0182V33.5417V24.7917V23.7757H22.0342H29.7682V18.9583V17.9424H30.7842H38.5182V11.6667H40.5502ZM42.8932 11.6667V16.0417V17.0576H43.9092H50.1849V19.4007H45.3675H44.3515V20.4167V24.7917V25.8076H45.3675H51.6432V29.609H45.3675V31.641H52.6592H53.6752V30.625V24.7917V23.7757H52.6592H46.3835V21.4326H51.2008H52.2168V20.4167V16.0417V15.0257H51.2008H44.9252V11.6667H42.8932Z" fill="#ECEDEE"/>
</svg>
