<svg width="16" height="14" viewBox="0 0 16 14" fill="none" xmlns="http://www.w3.org/2000/svg">
<path d="M6.0511 0.375254L6.425 0.562194C7.04166 0.870508 7.54167 1.3705 7.85 1.98713C7.9118 2.11073 8.0882 2.11073 8.15 1.98713C8.45833 1.3705 8.95835 0.870508 9.575 0.562194L9.9489 0.375254C10.7078 -0.00419754 11.5775 -0.0996561 12.4007 0.10613C13.1927 0.304123 13.8924 0.768694 14.3822 1.42177L14.5921 1.70156C15.1814 2.48733 15.5 3.44304 15.5 4.42525V4.73774C15.5 5.18554 15.4451 5.63165 15.3365 6.06609L15.2633 6.35877C15.007 7.38382 14.5484 8.3473 13.9144 9.19258L13.4881 9.761C13.1631 10.1943 12.8078 10.604 12.4248 10.9869L11.9924 11.4193C11.0039 12.4077 9.86257 13.2303 8.61225 13.8555C8.22683 14.0482 7.77317 14.0482 7.38775 13.8555C6.13743 13.2303 4.99607 12.4077 4.00761 11.4193L3.57522 10.9869C3.19222 10.604 2.83689 10.1943 2.51191 9.761L2.08558 9.19258C1.45159 8.3473 0.992983 7.38382 0.736708 6.35877L0.663535 6.06609C0.554922 5.63165 0.5 5.18554 0.5 4.73774V4.42525C0.5 3.44304 0.818585 2.48733 1.40794 1.70156L1.61779 1.42177C2.10762 0.768694 2.80733 0.304123 3.59934 0.10613C4.42252 -0.0996561 5.29217 -0.00419754 6.0511 0.375254Z" fill="#888888"/>
</svg>
