<svg width="52" height="26" viewBox="0 0 52 26" fill="none" xmlns="http://www.w3.org/2000/svg">
<path d="M0.443171 25.4857H4.72659V7.18006H0.443171V25.4857ZM2.57638 4.77953C3.91807 4.77953 4.96737 3.74339 4.96737 2.44827C4.96737 1.13547 3.91807 0.0995331 2.57638 0.0995331C1.2517 0.0995331 0.202393 1.13567 0.202393 2.44827C0.202393 3.74339 1.2517 4.77953 2.57638 4.77953ZM18.9877 0.151127C11.7458 0.151127 7.20418 5.10758 7.20418 13.0345C7.20418 20.9613 11.7454 25.9005 18.9879 25.9005C26.2127 25.9005 30.7543 20.9613 30.7543 13.0345C30.7543 5.10758 26.2131 0.151127 18.9879 0.151127H18.9877ZM18.9877 3.95058C23.4088 3.95058 26.2299 7.47358 26.2299 13.0343C26.2299 18.5778 23.4088 22.101 18.9879 22.101C14.5497 22.101 11.7458 18.578 11.7458 13.0343C11.7458 7.47358 14.5499 3.95058 18.9879 3.95058H18.9877ZM32.5614 18.4742C32.7505 23.0681 36.5006 25.9001 42.2117 25.9001C48.2154 25.9001 52 22.9298 52 18.1978C52 14.4848 49.867 12.3953 44.8267 11.2383L41.9711 10.5822C38.9262 9.85684 37.6705 8.88977 37.6705 7.23186C37.6705 5.15938 39.5627 3.77792 42.3667 3.77792C45.205 3.77792 47.1489 5.17685 47.3555 7.50811H51.5871C51.4839 3.12163 47.8714 0.151127 42.4011 0.151127C36.9996 0.151127 33.1635 3.13869 33.1635 7.55991C33.1635 11.1174 35.3309 13.3278 39.9065 14.3815L43.1234 15.1411C46.2542 15.884 47.5272 16.9201 47.5272 18.7161C47.5272 20.7884 45.4456 22.2737 42.4527 22.2737C39.4252 22.2737 37.1374 20.7712 36.8622 18.4742H32.5614Z" fill="#F2F2F4"/>
</svg>
