<svg width="196" height="36" viewBox="0 0 196 36" fill="none" xmlns="http://www.w3.org/2000/svg">
<path d="M21.4044 3.1665H3.87135C3.37302 3.17517 2.87756 3.1002 2.41328 2.94588C1.94899 2.79156 1.52499 2.56091 1.16548 2.26711C0.805968 1.9733 0.518 1.6221 0.318024 1.23357C0.118048 0.845029 0.00998239 0.426772 0 0.00268555L25.2758 0.00268555C25.2658 0.426772 25.1577 0.845029 24.9578 1.23357C24.7578 1.6221 24.4698 1.9733 24.1103 2.26711C23.7508 2.56091 23.3268 2.79156 22.8625 2.94588C22.3982 3.1002 21.9028 3.17517 21.4044 3.1665ZM10.2383 27.9488V11.2911C10.2383 8.72088 11.966 6.25953 15.0375 4.44074V27.9488H10.2383Z" fill="#E52529"/>
<path d="M55.9138 0.00268555C55.9138 1.48385 54.1797 2.6873 52.0745 2.6873H32.7945V25.2261H51.9913C54.1605 25.2261 55.9138 26.4459 55.9138 27.9488H28.8719V0.00268555H55.9138ZM51.9337 13.5674H43.8966C40.4045 13.5818 37.0343 12.4754 34.4582 10.4689H51.9337V13.5674Z" fill="#E52529"/>
<path d="M75.4115 25.0517C76.6995 25.0585 77.9762 24.8475 79.1676 24.4309C80.2718 24.0575 81.2786 23.5023 82.1303 22.7973L82.4567 22.4923C83.1357 21.8373 83.9722 21.3141 84.9095 20.958C85.8468 20.602 86.863 20.4214 87.8894 20.4285H87.9598C87.7087 21.5225 87.2036 22.5628 86.474 23.4886C85.7444 24.4143 84.805 25.2068 83.7109 25.8195C81.2831 27.2841 78.3675 28.0475 75.3923 27.9977H63.0999L58.9342 25.0517H75.4115ZM69.4285 3.00845C68.4985 3.00023 67.5747 3.1368 66.7025 3.41141C65.8965 3.66223 65.1586 4.04938 64.5333 4.54951C63.1445 5.62629 61.3246 6.2107 59.4461 6.18315H58.9342C59.4423 4.35693 60.7548 2.76636 62.6008 1.73965C64.605 0.56335 66.9944 -0.0445659 69.4285 0.00254532H83.8261L87.9854 3.00845H69.4285ZM83.007 12.9791C85.7585 14.3695 87.4095 16.2373 87.9598 18.5825H83.6533C83.3569 17.7053 82.7992 16.9081 82.0344 16.2682C81.1854 15.5524 80.1696 14.9959 79.0525 14.6345C77.849 14.2366 76.5682 14.0352 75.2771 14.041H69.518C66.9642 14.0771 64.4609 13.4337 62.3576 12.2004C60.631 11.2343 59.4056 9.74133 58.9342 8.02917H63.2407C63.7055 8.98489 64.5381 9.77788 65.6019 10.2781C66.7849 10.8608 68.1321 11.1583 69.4988 11.1385H75.2579C77.997 11.093 80.6915 11.733 83.007 12.9791Z" fill="#E52529"/>
<path d="M95.3441 0.00268555V16.0396C95.3441 18.4846 93.7124 20.8262 90.8201 22.5742V0.00268555H95.3441ZM117.868 27.9488H90.8137C90.7844 27.0499 91.1757 26.1779 91.9017 25.5244C92.6276 24.8709 93.6287 24.4894 94.685 24.4637H117.862L117.868 27.9488Z" fill="#E52529"/>
<path d="M136.816 0.00268555C137.52 1.2604 137.886 2.63621 137.886 4.02961C137.886 5.42302 137.52 6.79882 136.816 8.05654L125.937 27.9488H121.58L136.816 0.00268555ZM141.538 11.2748L150.56 27.9488H145.992L142.639 21.7846H131.242C132.202 20.0584 134.595 18.9202 137.27 18.9202H141.052L136.969 11.2966L141.538 11.2748Z" fill="#E52529"/>
<g filter="url(#filter0_d_427_5112)">
<path d="M162.533 0.00268555H167.761L191.987 27.9488H186.849L162.533 0.00268555ZM162.597 27.9488L173.795 15.054C174.584 15.8973 175.018 16.941 175.028 18.0187C175.039 19.0965 174.625 20.1462 173.853 21.0004L167.825 27.9488H162.597ZM192 0.00268555L181.192 12.4674C180.442 11.6354 180.036 10.6162 180.036 9.56765C180.036 8.51915 180.442 7.49993 181.192 6.66794L187.022 0.00268555H192Z" fill="#ECECEC"/>
</g>
<defs>
<filter id="filter0_d_427_5112" x="158.533" y="0.00268555" width="37.467" height="35.946" filterUnits="userSpaceOnUse" color-interpolation-filters="sRGB">
<feFlood flood-opacity="0" result="BackgroundImageFix"/>
<feColorMatrix in="SourceAlpha" type="matrix" values="0 0 0 0 0 0 0 0 0 0 0 0 0 0 0 0 0 0 127 0" result="hardAlpha"/>
<feOffset dy="4"/>
<feGaussianBlur stdDeviation="2"/>
<feComposite in2="hardAlpha" operator="out"/>
<feColorMatrix type="matrix" values="0 0 0 0 0 0 0 0 0 0 0 0 0 0 0 0 0 0 0.25 0"/>
<feBlend mode="normal" in2="BackgroundImageFix" result="effect1_dropShadow_427_5112"/>
<feBlend mode="normal" in="SourceGraphic" in2="effect1_dropShadow_427_5112" result="shape"/>
</filter>
</defs>
</svg>
