<svg width="28" height="28" viewBox="0 0 28 28" fill="none" xmlns="http://www.w3.org/2000/svg">
<g clip-path="url(#clip0_474_6989)">
<path d="M13.9997 24.6666C19.8907 24.6666 24.6663 19.891 24.6663 14C24.6663 8.10894 19.8907 3.33331 13.9997 3.33331C8.10864 3.33331 3.33301 8.10894 3.33301 14C3.33301 19.891 8.10864 24.6666 13.9997 24.6666Z" stroke="#696767" stroke-width="1.33333" stroke-linecap="round" stroke-linejoin="round"/>
<path d="M13.9997 15.3333V14L15.885 12.1146C16.3851 11.6147 16.6662 10.9365 16.6663 10.2293V9.99998C16.6663 9.18265 16.205 8.43598 15.4743 8.07065L15.1917 7.92931C14.8215 7.74436 14.4134 7.64807 13.9997 7.64807C13.5859 7.64807 13.1778 7.74436 12.8077 7.92931L12.6663 7.99998C11.849 8.40798 11.333 9.24398 11.333 10.1573V11.3333" stroke="#696767" stroke-width="1.33333" stroke-linecap="round" stroke-linejoin="round"/>
<path d="M13.9993 20.6667C14.7357 20.6667 15.3327 20.0697 15.3327 19.3333C15.3327 18.597 14.7357 18 13.9993 18C13.263 18 12.666 18.597 12.666 19.3333C12.666 20.0697 13.263 20.6667 13.9993 20.6667Z" fill="#696767"/>
</g>
</svg>
