<svg width="33" height="22" viewBox="0 0 33 22" fill="none" xmlns="http://www.w3.org/2000/svg">
<path d="M24.7496 22C28.8265 22 32.1316 18.6711 32.1316 14.5647C32.1316 10.6169 29.1159 7.33364 25.2573 7.09014C25.4461 5.85913 26.5697 2.76274 29.71 0.00893974C26.1166 -0.207432 16.9769 3.47086 17.2894 14.5647C17.2894 18.6711 20.6726 22 24.7496 22Z" fill="#E9463B"/>
<path d="M8.3364 22C12.4134 22 15.7184 18.6711 15.7184 14.5647C15.7184 10.6169 12.7028 7.33364 8.84416 7.09014C9.03294 5.85913 10.1565 2.76274 13.2968 0.00893974C9.70344 -0.207432 0.563784 3.47086 0.876251 14.5647C0.876251 18.6711 4.25942 22 8.3364 22Z" fill="#E9463B"/>
</svg>
