<svg width="19" height="15" viewBox="0 0 19 15" fill="none" xmlns="http://www.w3.org/2000/svg">
<path fill-rule="evenodd" clip-rule="evenodd" d="M4.03033 0.792912C3.73744 0.500019 3.26256 0.500019 2.96967 0.792912L0.381282 3.3813C0.0395728 3.72301 0.0395728 4.27703 0.381282 4.61874C0.72299 4.96045 1.27701 4.96045 1.61872 4.61874L2.625 3.61246V10.5C2.625 12.364 4.13604 13.875 6 13.875H10C10.4832 13.875 10.875 13.4833 10.875 13C10.875 12.5168 10.4832 12.125 10 12.125H6C5.10254 12.125 4.375 11.3975 4.375 10.5V3.61246L5.38128 4.61874C5.72299 4.96045 6.27701 4.96045 6.61872 4.61874C6.96043 4.27703 6.96043 3.72301 6.61872 3.3813L4.03033 0.792912ZM8.625 0.749981C8.14175 0.749981 7.75 1.14173 7.75 1.62498C7.75 2.10823 8.14175 2.49998 8.625 2.49998H12.625C13.5225 2.49998 14.25 3.22752 14.25 4.12498V11.0125L13.2437 10.0063C12.902 9.66455 12.348 9.66455 12.0063 10.0063C11.6646 10.348 11.6646 10.902 12.0063 11.2437L14.5947 13.8321C14.8876 14.125 15.3624 14.125 15.6553 13.8321L18.2437 11.2437C18.5854 10.902 18.5854 10.348 18.2437 10.0063C17.902 9.66455 17.348 9.66455 17.0063 10.0063L16 11.0125V4.12498C16 2.26102 14.489 0.749981 12.625 0.749981H8.625Z" fill="#888888"/>
</svg>
