<svg width="16" height="15" viewBox="0 0 16 15" fill="none" xmlns="http://www.w3.org/2000/svg">
<path fill-rule="evenodd" clip-rule="evenodd" d="M7.77145 0.146447C7.96671 -0.0488154 8.28329 -0.0488157 8.47855 0.146446L12.0669 3.73484C12.311 3.97891 12.311 4.37464 12.0669 4.61872C11.8229 4.8628 11.4271 4.8628 11.1831 4.61872L8.75 2.18566V9.67678C8.75 10.022 8.47018 10.3018 8.125 10.3018C7.77982 10.3018 7.5 10.022 7.5 9.67678V2.18566L5.06694 4.61872C4.82286 4.8628 4.42714 4.8628 4.18306 4.61872C3.93898 4.37464 3.93898 3.97891 4.18306 3.73484L7.77145 0.146447ZM1.125 8.05178C1.47018 8.05178 1.75 8.3316 1.75 8.67678V12.6768C1.75 13.16 2.14175 13.5518 2.625 13.5518H13.625C14.1082 13.5518 14.5 13.16 14.5 12.6768V8.67678C14.5 8.3316 14.7798 8.05178 15.125 8.05178C15.4702 8.05178 15.75 8.3316 15.75 8.67678V12.6768C15.75 13.8504 14.7986 14.8018 13.625 14.8018H2.625C1.4514 14.8018 0.5 13.8504 0.5 12.6768V8.67678C0.5 8.3316 0.779822 8.05178 1.125 8.05178Z" fill="#888888"/>
</svg>
