<svg width="40" height="32" viewBox="0 0 40 32" fill="none" xmlns="http://www.w3.org/2000/svg">
<path d="M37.5 0.5H2.5C1.39543 0.5 0.5 1.39543 0.5 2.5V29.5C0.5 30.6046 1.39543 31.5 2.5 31.5H37.5C38.6046 31.5 39.5 30.6046 39.5 29.5V2.5C39.5 1.39543 38.6046 0.5 37.5 0.5Z" stroke="black" stroke-linecap="round" stroke-linejoin="round"/>
<path d="M14.34 8.8C13.387 8.80265 12.4738 9.1831 11.8009 9.85794C11.1279 10.5328 10.75 11.447 10.75 12.4V12.4C10.75 13.353 11.1279 14.2672 11.8009 14.9421C12.4738 15.6169 13.387 15.9974 14.34 16H15.56M15.56 16H16.78C17.2523 16 17.7199 16.0932 18.1561 16.2742C18.5924 16.4553 18.9886 16.7206 19.3221 17.055C19.6555 17.3894 19.9198 17.7864 20.0996 18.2231C20.2794 18.6598 20.3713 19.1277 20.37 19.6C20.3713 20.0723 20.2794 20.5402 20.0996 20.9769C19.9198 21.4136 19.6555 21.8106 19.3221 22.145C18.9886 22.4794 18.5924 22.7447 18.1561 22.9258C17.7199 23.1068 17.2523 23.2 16.78 23.2M20 10C19 9.17 17.94 8.79 15.53 8.79H14.34M11.09 22C12.09 22.83 13.16 23.21 15.56 23.21H16.78M15.56 25V7M32.35 12.4H39.5V19.6H32.35C31.5941 19.6 30.8692 19.2997 30.3347 18.7653C29.8003 18.2308 29.5 17.5059 29.5 16.75V15.25C29.5 14.4941 29.8003 13.7692 30.3347 13.2347C30.8692 12.7003 31.5941 12.4 32.35 12.4Z" stroke="black" stroke-linecap="round" stroke-linejoin="round"/>
<path d="M32.47 16.7999C32.9119 16.7999 33.27 16.4418 33.27 16C33.27 15.5581 32.9119 15.2 32.47 15.2C32.0282 15.2 31.67 15.5581 31.67 16C31.67 16.4418 32.0282 16.7999 32.47 16.7999Z" fill="black"/>
</svg>
